<svg width="16" height="16" viewBox="0 0 16 16" fill="none" xmlns="http://www.w3.org/2000/svg">
<path d="M8 8C8 10.2091 9.79086 12 12 12C12 14.2091 10.2091 16 8 16C5.79086 16 4 14.2091 4 12C6.20914 12 8 10.2091 8 8ZM4 4C4 6.20914 5.79086 8 8 8C5.79086 8 4 9.79086 4 12C1.79086 12 0 10.2091 0 8C0 5.79086 1.79086 4 4 4ZM12 4C14.2091 4 16 5.79086 16 8C16 10.2091 14.2091 12 12 12C12 9.79086 10.2091 8 8 8C10.2091 8 12 6.20914 12 4ZM8 0C10.2091 0 12 1.79086 12 4C9.79086 4 8 5.79086 8 8C8 5.79086 6.20914 4 4 4C4 1.79086 5.79086 0 8 0Z" fill="#1D56CF"/>
</svg>
