<svg width="88" height="16" viewBox="0 0 88 16" fill="none" xmlns="http://www.w3.org/2000/svg">
<circle cx="4" cy="8" r="4" fill="#1D56CF"/>
<path d="M40 8C40 10.2091 41.7909 12 44 12C44 14.2091 42.2091 16 40 16C37.7909 16 36 14.2091 36 12C38.2091 12 40 10.2091 40 8ZM36 4C36 6.20914 37.7909 8 40 8C37.7909 8 36 9.79086 36 12C33.7909 12 32 10.2091 32 8C32 5.79086 33.7909 4 36 4ZM44 4C46.2091 4 48 5.79086 48 8C48 10.2091 46.2091 12 44 12C44 9.79086 42.2091 8 40 8C42.2091 8 44 6.20914 44 4ZM40 0C42.2091 0 44 1.79086 44 4C41.7909 4 40 5.79086 40 8C40 5.79086 38.2091 4 36 4C36 1.79086 37.7909 0 40 0Z" fill="#1D56CF"/>
<path d="M80 8C80 9.10457 80.448 10.1043 81.1719 10.8281C81.172 11.8519 80.7811 12.8761 80 13.6572C80.781 14.4381 81.8046 14.8281 82.8281 14.8281C82.1043 15.552 81.1046 16 80 16C78.8954 16 77.8957 15.552 77.1719 14.8281C78.1954 14.828 79.2191 14.4381 80 13.6572C79.2189 12.8761 78.828 11.8519 78.8281 10.8281C79.552 10.1043 80 9.10457 80 8ZM80 8C79.219 8.78097 78.8282 9.80454 78.8281 10.8281C78.1043 11.552 77.1046 12 76 12C76 13.1046 76.448 14.1043 77.1719 14.8281C76.1481 14.8282 75.1239 14.4384 74.3428 13.6572C73.5616 12.8761 73.1718 11.8519 73.1719 10.8281C73.8957 11.552 74.8954 12 76 12C76 10.8954 76.448 9.89573 77.1719 9.17188C78.1955 9.17179 79.219 8.78097 80 8ZM80 8C80.781 8.78097 81.8045 9.1718 82.8281 9.17188C83.552 9.89573 84 10.8954 84 12C85.1046 12 86.1043 11.552 86.8281 10.8281C86.8282 11.8519 86.4383 12.8761 85.6572 13.6572C84.8761 14.4383 83.8519 14.8282 82.8281 14.8281C83.552 14.1043 84 13.1046 84 12C82.8954 12 81.8957 11.552 81.1719 10.8281C81.1718 9.80454 80.781 8.78097 80 8ZM73.1719 5.17188C73.172 6.19538 73.5619 7.21905 74.3428 8C75.1239 7.21887 76.1481 6.82804 77.1719 6.82812C77.8957 7.55198 78.8954 8 80 8C78.8954 8 77.8957 8.44802 77.1719 9.17188C76.1481 9.17196 75.1239 8.78113 74.3428 8C73.5619 8.78095 73.172 9.80462 73.1719 10.8281C72.448 10.1043 72 9.10457 72 8C72 6.89543 72.448 5.89573 73.1719 5.17188ZM86.8281 5.17188C87.552 5.89573 88 6.89543 88 8C88 9.10457 87.552 10.1043 86.8281 10.8281C86.828 9.80462 86.4381 8.78095 85.6572 8C84.8761 8.78112 83.8519 9.17195 82.8281 9.17188C82.1043 8.44802 81.1046 8 80 8C81.1046 8 82.1043 7.55198 82.8281 6.82812C83.8519 6.82805 84.8761 7.21888 85.6572 8C86.4381 7.21905 86.828 6.19538 86.8281 5.17188ZM80 0C81.1046 0 82.1043 0.448017 82.8281 1.17188C81.8046 1.17195 80.781 1.56193 80 2.34277C80.7811 3.1239 81.172 4.14809 81.1719 5.17188C80.448 5.89573 80 6.89543 80 8C80 6.89543 79.552 5.89573 78.8281 5.17188C78.828 4.14809 79.2189 3.1239 80 2.34277C79.2191 1.56192 78.1954 1.17195 77.1719 1.17188C77.8957 0.448017 78.8954 0 80 0ZM82.8281 1.17188C83.8519 1.1718 84.8761 1.56165 85.6572 2.34277C86.4383 3.1239 86.8282 4.14809 86.8281 5.17188C86.1043 4.44802 85.1046 4 84 4C84 5.10457 83.552 6.10427 82.8281 6.82812C81.8045 6.8282 80.781 7.21903 80 8C80.781 7.21903 81.1718 6.19546 81.1719 5.17188C81.8957 4.44802 82.8954 4 84 4C84 2.89543 83.552 1.89573 82.8281 1.17188ZM77.1719 1.17188C76.448 1.89573 76 2.89543 76 4C77.1046 4 78.1043 4.44802 78.8281 5.17188C78.8282 6.19546 79.219 7.21903 80 8C79.219 7.21903 78.1955 6.82821 77.1719 6.82812C76.448 6.10427 76 5.10457 76 4C74.8954 4 73.8957 4.44802 73.1719 5.17188C73.1718 4.14809 73.5616 3.1239 74.3428 2.34277C75.1239 1.56165 76.1481 1.1718 77.1719 1.17188Z" fill="#1D56CF"/>
</svg>
